<?xml version="1.0" encoding="UTF-8" standalone="no"?>
<!DOCTYPE svg PUBLIC "-//W3C//DTD SVG 1.1//EN" "http://www.w3.org/Graphics/SVG/1.1/DTD/svg11.dtd">
<svg width="100%" height="100%" viewBox="0 0 64 64" version="1.1" xmlns="http://www.w3.org/2000/svg" xmlns:xlink="http://www.w3.org/1999/xlink" xml:space="preserve" xmlns:serif="http://www.serif.com/" style="fill-rule:evenodd;clip-rule:evenodd;stroke-linejoin:round;stroke-miterlimit:2;">
    <g transform="matrix(1.41554,0,0,1.50244,-23.8667,-9.85801)">
        <path d="M22.993,37.711L30.084,37.711L31.605,32.159L31.702,31.274C31.702,31.274 33.651,24.65 34.034,23.349C34.072,23.219 34.198,23.129 34.341,23.129C34.412,23.129 34.484,23.129 34.53,23.129C34.562,23.129 34.59,23.149 34.598,23.178C34.793,23.844 36.915,31.091 36.915,31.091L37.013,32.067L38.567,37.711L45.658,37.711L38.502,16.357L30.213,16.357L22.993,37.711ZM28.756,34.355L39.894,34.355L37.811,28.411L30.688,28.411L28.756,34.355Z" style="fill-rule:nonzero;"/>
        <path d="M44.945,37.711L51.389,37.711L51.389,29.474C51.389,29.149 51.464,28.844 51.615,28.559C51.767,28.274 51.982,28.03 52.263,27.827C52.544,27.624 52.884,27.466 53.283,27.354C53.682,27.242 54.119,27.186 54.594,27.186C54.875,27.186 55.161,27.202 55.452,27.232C55.744,27.263 55.997,27.319 56.213,27.4L56.213,21.848L55.695,21.848C54.637,21.848 53.671,22.056 52.797,22.473C51.923,22.89 50.919,23.576 50.293,24.288C49.966,23.939 49.997,22.247 50.061,21.848L45.315,21.848C45.217,21.848 45.123,21.884 45.054,21.95C44.984,22.015 44.945,22.103 44.945,22.196C44.945,24.521 44.945,37.711 44.945,37.711Z" style="fill-rule:nonzero;"/>
    </g>
</svg>
